<?xml version="1.0" encoding="utf-8"?>
<!-- Generator: Adobe Illustrator 19.1.0, SVG Export Plug-In . SVG Version: 6.00 Build 0)  -->
<!DOCTYPE svg PUBLIC "-//W3C//DTD SVG 1.1//EN" "http://www.w3.org/Graphics/SVG/1.1/DTD/svg11.dtd">
<svg version="1.1" id="Layer_1" xmlns="http://www.w3.org/2000/svg" xmlns:xlink="http://www.w3.org/1999/xlink" x="0px" y="0px"
	 viewBox="0 0 150 150" style="enable-background:new 0 0 150 150;" xml:space="preserve">
<style type="text/css">
	.st0{fill:#FF9933;}
</style>
<path class="st0" d="M132.4,8.8c5.1,0,9.6,0.1,13.7,3.9c4.3,4,3.9,9.7,3.9,15v69.1c0,5.1-2.9,9.7-7.4,12.1
	c-3.5,1.8-7.7,1.4-11.6,1.4H91.5c7.5,7.5,15,15,22.6,22.6c3.3,3.3-1.8,8.5-5.2,5.1c-7.1-7.1-14.3-14.3-21.4-21.4v18.8
	c0,4.7-7.3,4.7-7.3,0v-18.8c-7.1,7.1-14.3,14.3-21.4,21.4c-3.3,3.3-8.5-1.8-5.2-5.1c7.5-7.5,15-15,22.6-22.6H38.7c0-2.4,0-4.9,0-7.3
	h97.8c3.4,0,6.3-2.6,6.3-6v-3V28.9c0-3.8,1-9.2-2.6-11.7c-2.5-1.7-6.8-1.1-9.6-1.1H43c-2.7,0-5.8-0.4-8.4,0.1
	c-2.1,0.4-3.4,1.5-4.1,3c-2-1.3-4.3-2.1-6.8-2.3c2-4.7,6.4-8.1,12.2-8.1L132.4,8.8L132.4,8.8z"/>
<path class="st0" d="M22.6,21.5c5.3,0,9.6,4.3,9.6,9.6c0,5.3-4.3,9.6-9.6,9.6c-5.3,0-9.6-4.3-9.6-9.6C13,25.8,17.3,21.5,22.6,21.5z
	 M40.8,42.6c9.5,0,18.8,0,27.4,0c5.8,0,5.7,8-0.1,8H35.6c-0.6,0-1.2,0.5-1.2,1.1v81.9c0,3-2.4,5.4-5.4,5.4c-3,0-5.4-2.4-5.4-5.4
	V89.5c0-0.7-0.5-1.2-1.2-1.2c-0.7,0-1.2,0.5-1.2,1.2c0,15,0,30.5,0,44.1c0,3-2.4,5.4-5.4,5.4c-3,0-5.4-2.4-5.4-5.4
	c0-25.7,0-51.4,0-77.1c0-0.6-0.5-1.2-1.2-1.2c-0.6,0-1.2,0.5-1.2,1.2c0,10.4,0,21,0,29.9c0,5.8-8,5.9-8,0.1V55.7
	c0-6.4,4.2-13.1,11.7-13.1C21.5,42.6,31.2,42.6,40.8,42.6z"/>
<g transform="matrix(0.18145139,0,0,0.18145139,27.242251,-2073.5381)">
	<path class="st0" d="M354.3,11670.7c-4.9,0-10.3,0.5-15.2,1.1c-6.5,1.1-10.9,6-10.9,12v13c0,2.7-2.2,5.4-4.9,6
		c-8.2,2.7-16.3,6-23.4,9.8c-2.2,1.6-5.4,1.1-7.6-1.1l-9.2-9.2c-4.3-3.8-10.9-4.3-15.8-0.5c-8.2,6.5-15.2,13.6-21.7,21.7
		c-3.8,4.9-3.8,11.4,0.5,15.8l9.2,9.2c2.2,2.2,2.7,4.9,1.1,7.6c-4.3,7.6-7.6,15.2-9.8,23.4c-0.5,2.7-3.3,4.9-6,4.9h-13
		c-6.5,0.5-11.4,4.9-12,10.9c-0.5,4.9-1.1,9.8-1.1,15.2c0,4.9,0.5,10.3,1.1,15.2c1.1,6.5,6,10.9,12,10.9h13c2.7,0,5.4,2.2,6,4.9
		c2.7,8.2,6,16.3,9.8,23.4c1.6,2.2,1.1,5.4-1.1,7.6l-9.2,9.2c-3.8,4.3-4.3,10.9-0.5,15.8c6.5,8.2,13.6,15.2,21.7,21.7
		c4.9,3.8,11.4,3.8,15.8-0.5l9.2-9.2c2.2-2.2,4.9-2.7,7.6-1.1c7.6,4.3,15.2,7.6,23.4,9.8c2.7,0.5,4.9,3.3,4.9,6v13
		c0.5,6.5,4.9,11.4,10.9,12c4.9,0.5,9.8,1.1,15.2,1.1c4.9,0,10.3-0.5,15.2-1.1c6.5-1.1,10.9-6,10.9-12l0-13c0-2.7,2.2-5.4,4.9-6
		c8.2-2.7,16.3-6,23.4-9.8c2.2-1.6,5.4-1.1,7.6,1.1l9.2,9.2c4.3,3.8,10.9,4.4,15.8,0.5c8.2-6.5,15.2-13.6,21.7-21.7
		c3.8-4.9,3.8-11.4-0.5-15.8l-9.2-9.2c-2.2-2.2-2.7-4.9-1.1-7.6c4.3-7.6,7.6-15.2,9.8-23.4c0.5-2.7,3.3-4.9,6-4.9h13
		c6.5-0.5,11.4-4.9,12-10.9c0.5-4.9,1.1-9.8,1.1-15.2c0-4.9-0.5-10.3-1.1-15.2c-1.1-6.5-6-10.9-12-10.9h-13c-2.7,0-5.4-2.2-6-4.9
		c-2.7-8.2-6-16.3-9.8-23.4c-1.6-2.2-1.1-5.4,1.1-7.6l9.2-9.2c3.8-4.3,4.4-10.9,0.5-15.8c-6.5-8.2-13.6-15.2-21.7-21.7
		c-4.9-3.8-11.4-3.8-15.8,0.5l-9.2,9.2c-2.2,2.2-4.9,2.7-7.6,1.1c-7.6-4.4-15.2-7.6-23.4-9.8c-2.7-0.5-4.9-3.3-4.9-6v-13
		c-0.5-6.5-4.9-11.4-10.9-12C364.6,11671.3,359.7,11670.7,354.3,11670.7L354.3,11670.7z M354.3,11737.6c40.2,0,72.9,32.6,72.9,72.9
		h0c0,40.2-32.6,72.9-72.9,72.9c-40.2,0-72.9-32.6-72.9-72.9C281.4,11770.2,314.1,11737.6,354.3,11737.6L354.3,11737.6z"/>
	<path class="st0" d="M464.4,11560.6c-4.9,0-10.3,0.5-15.2,1.1c-6.5,1.1-10.9,6-10.9,12v13c0,2.7-2.2,5.4-4.9,6
		c-8.2,2.7-16.3,5.9-23.4,9.8c-2.2,1.6-5.5,1.1-7.6-1.1l-9.2-9.2c-4.3-3.8-10.9-4.4-15.8-0.6c-8.2,6.5-15.2,13.6-21.7,21.8
		c-1.9,2.4-2.9,5.3-2.8,8.1c0.1,2.8,1.2,5.5,3.3,7.7l9.2,9.2c2.2,2.2,2.7,4.9,1.1,7.6c-0.6,1.1-1.2,2.2-1.8,3.3
		c13.9,0.2,27.3,8.2,33.5,20.5c11.5-25,36.8-42.4,66.1-42.4c40.2,0,72.9,32.7,72.9,72.9c0,29.3-17.3,54.5-42.2,66.1
		c0.2,0.1,0.4,0.2,0.6,0.3c12.6,6.6,18,19.6,19.5,33.3c1.2-0.6,2.5-1.2,3.7-1.8c2.2-1.6,5.4-1.1,7.6,1.1l9.2,9.2
		c4.3,3.8,10.9,4.3,15.8,0.5c8.2-6.5,15.2-13.6,21.8-21.7c3.8-4.9,3.8-11.4-0.6-15.8l-9.2-9.2c-2.2-2.2-2.7-4.9-1.1-7.6
		c4.3-7.6,7.6-15.3,9.8-23.4c0.5-2.7,3.3-4.9,6-4.9h13c6.5-0.5,11.4-4.9,12-10.9c0.5-4.9,1.1-9.8,1.1-15.2c0-4.9-0.5-10.4-1.1-15.3
		c-1.1-6.5-6-10.9-12-10.9h-13c-2.7,0-5.4-2.2-6-4.9c-2.7-8.2-6-16.3-9.8-23.4c-1.6-2.2-1.1-5.5,1.1-7.6l9.2-9.2
		c3.8-4.3,4.4-10.9,0.6-15.8c-6.5-8.2-13.6-15.2-21.8-21.8c-4.9-3.8-11.4-3.8-15.8,0.6l-9.2,9.2c-2.2,2.2-4.9,2.7-7.6,1.1
		c-7.6-4.3-15.3-7.6-23.4-9.8c-2.7-0.5-4.9-3.3-4.9-6l0-13c-0.5-6.5-4.9-11.4-10.8-12C474.8,11561.2,469.9,11560.6,464.4,11560.6
		L464.4,11560.6z"/>
</g>
</svg>
