<?xml version="1.0" encoding="utf-8"?>
<!-- Generator: Adobe Illustrator 19.1.0, SVG Export Plug-In . SVG Version: 6.00 Build 0)  -->
<!DOCTYPE svg PUBLIC "-//W3C//DTD SVG 1.1//EN" "http://www.w3.org/Graphics/SVG/1.1/DTD/svg11.dtd">
<svg version="1.1" id="Layer_1" xmlns:sketch="http://www.bohemiancoding.com/sketch/ns"
	 xmlns="http://www.w3.org/2000/svg" xmlns:xlink="http://www.w3.org/1999/xlink" x="0px" y="0px" viewBox="-124 99.8 100 100"
	 style="enable-background:new -124 99.8 100 100;" xml:space="preserve">
<style type="text/css">
	.st0{fill:#FF9933;}
</style>
<title>coding</title>
<desc>Created with Sketch.</desc>
<g sketch:type="MSPage">
	<path sketch:type="MSShapeGroup" class="st0" d="M-35.3,171v-3.3v-45.1c0-1.4-1.1-2.6-2.6-2.6h-72.3c-1.4,0-2.6,1.1-2.6,2.6v45.1v0
		v3.3H-124v3.4c0,0.9,0.7,1.6,1.6,1.6h96.8c0.9,0,1.6-0.7,1.6-1.6V171H-35.3z M-102.5,126.3h18.7v2.5h-18.7V126.3z M-102.5,130.6
		h27.1v2.5h-27.1V130.6z M-102.5,147h27.1v2.5h-27.1V147z M-80.5,143h27.1v2.5h-27.1V143z M-102.5,135h13.6v2.5h-13.6V135z
		 M-87.1,135h20.1v2.5h-20.1V135z M-102.5,139h10.1v2.5h-10.1V139z M-72.5,139h10.1v2.5h-10.1V139z M-90.6,139h16.4v2.5h-16.4V139z
		 M-102.5,143h20.1v2.5h-20.1V143z M-107.1,130.6h2.5v2.5h-2.5V130.6z M-107.1,135h2.5v2.5h-2.5V135z M-107.1,139h2.5v2.5h-2.5V139z
		 M-107.1,143h2.5v2.5h-2.5V143z M-107.1,147h2.5v2.5h-2.5V147z M-102.5,159.1h27.1v2.5h-27.1V159.1z M-80.5,155.1h27.1v2.5h-27.1
		V155.1z M-102.5,151h10.1v2.5h-10.1V151z M-72.5,151h10.1v2.5h-10.1V151z M-90.6,151h16.4v2.5h-16.4V151z M-102.5,155.1h20.1v2.5
		h-20.1V155.1z M-107.1,151h2.5v2.5h-2.5V151z M-102.5,163.1h10.1v2.5h-10.1V163.1z M-72.5,163.1h10.1v2.5h-10.1V163.1z
		 M-90.6,163.1h16.4v2.5h-16.4V163.1z M-107.1,163.1h2.5v2.5h-2.5V163.1z M-107.1,155.1h2.5v2.5h-2.5V155.1z M-107.1,159.1h2.5v2.5
		h-2.5V159.1z M-107.1,126.3h2.5v2.5h-2.5V126.3z M-38.4,168h-71.3v-44.8h71.3V168L-38.4,168z"/>
</g>
</svg>
