<?xml version="1.0" encoding="utf-8"?>
<!-- Generator: Adobe Illustrator 19.1.0, SVG Export Plug-In . SVG Version: 6.00 Build 0)  -->
<!DOCTYPE svg PUBLIC "-//W3C//DTD SVG 1.1//EN" "http://www.w3.org/Graphics/SVG/1.1/DTD/svg11.dtd">
<svg version="1.1" xmlns="http://www.w3.org/2000/svg" xmlns:xlink="http://www.w3.org/1999/xlink" x="0px" y="0px"
	 viewBox="-125.3 111.5 102.3 97.8" style="enable-background:new -125.3 111.5 102.3 97.8;" xml:space="preserve">
<style type="text/css">
	.st0{display:none;}
	.st1{display:inline;}
	.st2{fill:#FF88B6;}
	.st3{fill:#E90F51;}
</style>
<g id="Layer_3" class="st0">
	<g class="st1">
		<g>
			<rect x="-70" y="132" class="st2" width="17" height="17"/>
		</g>
		<g>
			<rect x="-40" y="117" class="st2" width="17" height="17"/>
		</g>
		<g>
			<rect x="-55" y="112" class="st2" width="17" height="17"/>
		</g>
		<g>
			<rect x="-60" y="122" class="st2" width="17" height="17"/>
		</g>
		<g>
			<rect x="-50" y="122" class="st2" width="17" height="17"/>
		</g>
		<g>
			<rect x="-45" y="132" class="st2" width="17" height="17"/>
		</g>
		<g>
			<rect x="-55" y="132" class="st2" width="17" height="17"/>
		</g>
		<g>
			<rect x="-65" y="127" class="st2" width="17" height="17"/>
		</g>
		<g>
			<rect x="-75" y="127" class="st2" width="17" height="17"/>
		</g>
		<g>
			<rect x="-70" y="119" class="st2" width="17" height="17"/>
		</g>
		<g>
			<rect x="-50" y="137" class="st2" width="17" height="17"/>
		</g>
		<g>
			<path class="st2" d="M-74.1,209c-3.1,0-4.7-2.2-5.4-3.1c-0.4-0.5-1-1.4-2.3-2.8c-1.7-1.9-6.3-5.9-9.9-8.6
				c-11.9-9-13.7-10.4-18.6-15c-10-9.2-14.5-19-14.5-31.8c0-6.2,0.6-9.2,2.5-13.2c3.2-6.6,7.8-11.6,13.9-14.6c4-2,6.5-3.2,13.5-3.2
				l0.4,0c6.9,0,9.1,1.1,13.2,3.3c4.7,2.6,9.2,7.3,11.5,11.9h6.8v5h15v5.1h8V137h17v32h-5v5h-5v5h-5v5h-5v5h-5v5h-5v5h-5v5h-5v5h-10
				L-74.1,209L-74.1,209z"/>
		</g>
	</g>
</g>
<g id="Layer_2" class="st0">
	<g class="st1">
		<rect x="-68" y="134" class="st2" width="13" height="13"/>
	</g>
	<g class="st1">
		<rect x="-38" y="119" class="st2" width="13" height="13"/>
	</g>
	<g class="st1">
		<rect x="-53" y="114" class="st2" width="13" height="13"/>
	</g>
	<g class="st1">
		<rect x="-58" y="124" class="st2" width="13" height="13"/>
	</g>
	<g class="st1">
		<rect x="-48" y="124" class="st2" width="13" height="13"/>
	</g>
	<g class="st1">
		<rect x="-43" y="134" class="st2" width="13" height="13"/>
	</g>
	<g class="st1">
		<rect x="-53" y="134" class="st2" width="13" height="13"/>
	</g>
	<g class="st1">
		<rect x="-63" y="129" class="st2" width="13" height="13"/>
	</g>
	<g class="st1">
		<rect x="-73" y="129" class="st2" width="13" height="13"/>
	</g>
	<g class="st1">
		<rect x="-68" y="121" class="st2" width="13" height="13"/>
	</g>
	<g class="st1">
		<rect x="-48" y="139" class="st2" width="13" height="13"/>
	</g>
	<g class="st1">
		<path class="st2" d="M-74.1,207c-2.1,0-3.2-1.4-3.9-2.3c-0.4-0.5-1.1-1.4-2.4-2.9c-1.8-2-6.4-6-10.2-8.9
			c-11.9-8.9-13.6-10.3-18.5-14.8c-9.6-8.8-13.8-18.2-13.8-30.3c0-6,0.5-8.6,2.3-12.4c3-6.2,7.3-10.8,13-13.7
			c3.8-1.9,6.1-2.9,12.6-3l0.4,0c6.4,0,8.4,0.9,12.3,3.1c4.8,2.6,9.4,7.7,11.1,12.1h6.1v5h2v0h13v5.1h12V139h13v28h-5v5h-5v5h-5v5
			h-5v5h-5v5h-5v5h-5v5h-5v5h-8L-74.1,207z"/>
	</g>
</g>
<g id="Layer_1">
	<rect x="-69" y="188" width="5" height="5"/>
	<rect x="-64" y="138" class="st3" width="5" height="5"/>
	<rect x="-34" y="123" class="st3" width="5" height="5"/>
	<rect x="-49" y="118" class="st3" width="5" height="5"/>
	<rect x="-54" y="128" class="st3" width="5" height="5"/>
	<rect x="-44" y="128" class="st3" width="5" height="5"/>
	<rect x="-39" y="138" class="st3" width="5" height="5"/>
	<rect x="-49" y="138" class="st3" width="5" height="5"/>
	<rect x="-59" y="133" class="st3" width="5" height="5"/>
	<rect x="-69" y="133" class="st3" width="5" height="5"/>
	<rect x="-64" y="125" class="st3" width="5" height="5"/>
	<rect x="-44" y="143" class="st3" width="5" height="5"/>
	<path class="st3" d="M-34,143v5v0.1h-5v4.9h-5v-4.9h-10V143h-5v5.1h-5.2V143H-69v-5h-5v0.5l-0.6-2.2c-0.9-3.6-5.3-8.6-9.6-10.9
		c-3.5-1.9-4.8-2.6-10.7-2.6c-5.7,0-7.4,0.8-10.8,2.5c-4.8,2.5-8.6,6.5-11.2,11.9c-1.5,3.2-1.9,5.3-1.9,10.7
		c0,11.1,3.7,19.2,12.5,27.3c4.8,4.4,6.4,5.7,18.2,14.6c4,3,8.8,7.2,10.7,9.4c2.8,3.1,3,4,3.3,3.8h5v-5h5v-5h5v-5h5v-5h5v-5h5v-5h5
		v-5h5v-5h5v-5v-5v-5v-5H-34z"/>
</g>
</svg>
