<?xml version="1.0" encoding="utf-8"?>
<!-- Generator: Adobe Illustrator 19.1.0, SVG Export Plug-In . SVG Version: 6.00 Build 0)  -->
<!DOCTYPE svg PUBLIC "-//W3C//DTD SVG 1.1//EN" "http://www.w3.org/Graphics/SVG/1.1/DTD/svg11.dtd">
<svg version="1.1" id="Layer_1" xmlns="http://www.w3.org/2000/svg" xmlns:xlink="http://www.w3.org/1999/xlink" x="0px" y="0px"
	 viewBox="-124 113 101 95" style="enable-background:new -124 113 101 95;" xml:space="preserve">
<style type="text/css">
	.st0{fill:#E90F51;}
</style>
<rect x="-69" y="188" width="5" height="5"/>
<rect x="-64" y="138" class="st0" width="5" height="5"/>
<rect x="-34" y="123" class="st0" width="5" height="5"/>
<rect x="-49" y="118" class="st0" width="5" height="5"/>
<rect x="-54" y="128" class="st0" width="5" height="5"/>
<rect x="-44" y="128" class="st0" width="5" height="5"/>
<rect x="-39" y="138" class="st0" width="5" height="5"/>
<rect x="-49" y="138" class="st0" width="5" height="5"/>
<rect x="-59" y="133" class="st0" width="5" height="5"/>
<rect x="-69" y="133" class="st0" width="5" height="5"/>
<rect x="-64" y="125" class="st0" width="5" height="5"/>
<rect x="-44" y="143" class="st0" width="5" height="5"/>
<path class="st0" d="M-34,143v5v0.1h-5v4.9h-5v-4.9h-10V143h-5v5.1h-5.2V143H-69v-5h-5v0.5l-0.6-2.2c-0.9-3.6-5.3-8.6-9.6-10.9
	c-3.5-1.9-4.8-2.6-10.7-2.6c-5.7,0-7.4,0.8-10.8,2.5c-4.8,2.5-8.6,6.5-11.2,11.9c-1.5,3.2-1.9,5.3-1.9,10.7
	c0,11.1,3.7,19.2,12.5,27.3c4.8,4.4,6.4,5.7,18.2,14.6c4,3,8.8,7.2,10.7,9.4c2.8,3.1,3,4,3.3,3.8h5v-5h5v-5h5v-5h5v-5h5v-5h5v-5h5
	v-5h5v-5h5v-5v-5v-5v-5H-34z"/>
</svg>
