<?xml version="1.0" encoding="utf-8"?>
<!-- Generator: Adobe Illustrator 19.1.0, SVG Export Plug-In . SVG Version: 6.00 Build 0)  -->
<!DOCTYPE svg PUBLIC "-//W3C//DTD SVG 1.1//EN" "http://www.w3.org/Graphics/SVG/1.1/DTD/svg11.dtd">
<svg version="1.1" xmlns="http://www.w3.org/2000/svg" xmlns:xlink="http://www.w3.org/1999/xlink" x="0px" y="0px"
	 viewBox="-125.3 111.5 102.3 97.8" style="enable-background:new -125.3 111.5 102.3 97.8;" xml:space="preserve" class="heartPump">
<style type="text/css">
	.st0{fill:#FF88B6;}
	.st1{fill:#E90F51;}

	.heartPump .st0 {
	  fill: HSL(337, 100%, 77%);
	  animation-name: glow-pink;
	  animation-duration: .8s;
	  animation-iteration-count: infinite;
	  animation-timing-function: cubic-bezier(0,10,50,100);
	  animation-direction: alternate;
	}

	@keyframes glow-pink {
	  0% { fill: HSL(30, 90%, 60%) }
	  100% { fill: HSL(337, 100%, 77%) }
	}

</style>
<g id="Layer_3">
	<path class="st0" d="M-23,134v-17h-15v-5h-17v7h-15v8h-3.1c-2.3-2.7-5.2-5.2-8.1-6.9c-4.1-2.2-6.4-3.3-13.2-3.3l-0.4,0
		c-7,0-9.5,1.2-13.5,3.2c-6.1,3.1-10.7,8-13.9,14.6c-1.9,4-2.5,7-2.5,13.2c0,12.7,4.5,22.5,14.5,31.8c4.9,4.6,6.7,6,18.6,15
		c3.6,2.7,8.2,6.7,9.9,8.6c1.2,1.4,1.9,2.2,2.3,2.8c0.7,0.9,2.3,3.1,5.4,3.1h0l1.1,0h10v-5h5v-5h5v-5h5v-5h5v-5h5v-5h5v-5h5v-5h5
		v-32h-5v-3H-23z"/>
</g>
<g id="Layer_1">
	<rect x="-69" y="188" width="5" height="5"/>
	<rect x="-64" y="138" class="st1" width="5" height="5"/>
	<rect x="-34" y="123" class="st1" width="5" height="5"/>
	<rect x="-49" y="118" class="st1" width="5" height="5"/>
	<rect x="-54" y="128" class="st1" width="5" height="5"/>
	<rect x="-44" y="128" class="st1" width="5" height="5"/>
	<rect x="-39" y="138" class="st1" width="5" height="5"/>
	<rect x="-49" y="138" class="st1" width="5" height="5"/>
	<rect x="-59" y="133" class="st1" width="5" height="5"/>
	<rect x="-69" y="133" class="st1" width="5" height="5"/>
	<rect x="-64" y="125" class="st1" width="5" height="5"/>
	<rect x="-44" y="143" class="st1" width="5" height="5"/>
	<path class="st1" d="M-34,143v5v0.1h-5v4.9h-5v-4.9h-10V143h-5v5.1h-5.2V143H-69v-5h-5v0.5l-0.6-2.2c-0.9-3.6-5.3-8.6-9.6-10.9
		c-3.5-1.9-4.8-2.6-10.7-2.6c-5.7,0-7.4,0.8-10.8,2.5c-4.8,2.5-8.6,6.5-11.2,11.9c-1.5,3.2-1.9,5.3-1.9,10.7
		c0,11.1,3.7,19.2,12.5,27.3c4.8,4.4,6.4,5.7,18.2,14.6c4,3,8.8,7.2,10.7,9.4c2.8,3.1,3,4,3.3,3.8h5v-5h5v-5h5v-5h5v-5h5v-5h5v-5h5
		v-5h5v-5h5v-5v-5v-5v-5H-34z"/>
</g>
</svg>
