<svg xmlns="http://www.w3.org/2000/svg" xmlns:xlink="http://www.w3.org/1999/xlink" xmlns:sketch="http://www.bohemiancoding.com/sketch/ns" viewBox="0 0 100 71.25" version="1.1" x="0px" y="0px"><title>coding</title><desc>Created with Sketch.</desc><g stroke="none" stroke-width="1" fill="none" fill-rule="evenodd" sketch:type="MSPage"><path d="M88.6719403,51.5411735 L88.6719403,48.1929432 L88.6719403,3.0479966 C88.6719403,1.62840431 87.527185,0.478869144 86.1147623,0.478869144 L13.8517793,0.478869144 C12.4393566,0.478869144 11.2946012,1.62840431 11.2946012,3.0479966 L11.2946012,48.1905533 L11.2946012,48.1929432 L11.2946012,51.5387836 L0,51.5387836 L0,54.8989633 C0,55.7951706 0.728915231,56.5240858 1.62512248,56.5240858 L98.3772674,56.5240858 C99.2734747,56.5240858 100,55.7951706 100,54.8989633 L100,51.5411735 L88.6719403,51.5411735 Z M21.5262358,6.80963116 L40.2458524,6.80963116 L40.2458524,9.28366726 L21.5262358,9.28366726 L21.5262358,6.80963116 Z M21.5262358,11.1391943 L48.6696798,11.1391943 L48.6696798,13.6132304 L21.5262358,13.6132304 L21.5262358,11.1391943 Z M21.5262358,27.5296835 L48.6696798,27.5296835 L48.6696798,30.0037196 L21.5262358,30.0037196 L21.5262358,27.5296835 Z M43.4838027,23.5093748 L70.6272467,23.5093748 L70.6272467,25.9834109 L43.4838027,25.9834109 L43.4838027,23.5093748 Z M21.5262358,15.4687575 L35.0979578,15.4687575 L35.0979578,17.9427936 L21.5262358,17.9427936 L21.5262358,15.4687575 Z M36.9319369,15.4687575 L57.0555247,15.4687575 L57.0555247,17.9427936 L36.9319369,17.9427936 L36.9319369,15.4687575 Z M21.5262358,19.4890661 L31.5880297,19.4890661 L31.5880297,21.9631022 L21.5262358,21.9631022 L21.5262358,19.4890661 Z M51.5376461,19.4890661 L61.59944,19.4890661 L61.59944,21.9631022 L51.5376461,21.9631022 L51.5376461,19.4890661 Z M33.4220088,19.4890661 L49.8630215,19.4890661 L49.8630215,21.9631022 L33.4220088,21.9631022 L33.4220088,19.4890661 Z M21.5262358,23.5093748 L41.6498236,23.5093748 L41.6498236,25.9834109 L21.5262358,25.9834109 L21.5262358,23.5093748 Z M16.9222968,11.1391943 L19.3961638,11.1391943 L19.3961638,13.6132304 L16.9222968,13.6132304 L16.9222968,11.1391943 Z M16.9222968,15.4687575 L19.3961638,15.4687575 L19.3961638,17.9427936 L16.9222968,17.9427936 L16.9222968,15.4687575 Z M16.9222968,19.4890661 L19.3961638,19.4890661 L19.3961638,21.9631022 L16.9222968,21.9631022 L16.9222968,19.4890661 Z M16.9222968,23.5093748 L19.3961638,23.5093748 L19.3961638,25.9834109 L16.9222968,25.9834109 L16.9222968,23.5093748 Z M16.9222968,27.5296835 L19.3961638,27.5296835 L19.3961638,30.0037196 L16.9222968,30.0037196 L16.9222968,27.5296835 Z M21.5262358,39.5906094 L48.6696798,39.5906094 L48.6696798,42.0646455 L21.5262358,42.0646455 L21.5262358,39.5906094 Z M43.4838027,35.5703008 L70.6272467,35.5703008 L70.6272467,38.0443369 L43.4838027,38.0443369 L43.4838027,35.5703008 Z M21.5262358,31.5499921 L31.5880297,31.5499921 L31.5880297,34.0240282 L21.5262358,34.0240282 L21.5262358,31.5499921 Z M51.5376461,31.5499921 L61.59944,31.5499921 L61.59944,34.0240282 L51.5376461,34.0240282 L51.5376461,31.5499921 Z M33.4220088,31.5499921 L49.8630215,31.5499921 L49.8630215,34.0240282 L33.4220088,34.0240282 L33.4220088,31.5499921 Z M21.5262358,35.5703008 L41.6498236,35.5703008 L41.6498236,38.0443369 L21.5262358,38.0443369 L21.5262358,35.5703008 Z M16.9222968,31.5499921 L19.3961638,31.5499921 L19.3961638,34.0240282 L16.9222968,34.0240282 L16.9222968,31.5499921 Z M21.5262358,43.6109181 L31.5880297,43.6109181 L31.5880297,46.0849542 L21.5262358,46.0849542 L21.5262358,43.6109181 Z M51.5376461,43.6109181 L61.59944,43.6109181 L61.59944,46.0849542 L51.5376461,46.0849542 L51.5376461,43.6109181 Z M33.4220088,43.6109181 L49.8630215,43.6109181 L49.8630215,46.0849542 L33.4220088,46.0849542 L33.4220088,43.6109181 Z M16.9222968,43.6109181 L19.3961638,43.6109181 L19.3961638,46.0849542 L16.9222968,46.0849542 L16.9222968,43.6109181 Z M16.9222968,35.5703008 L19.3961638,35.5703008 L19.3961638,38.0443369 L16.9222968,38.0443369 L16.9222968,35.5703008 Z M16.9222968,39.5906094 L19.3961638,39.5906094 L19.3961638,42.0646455 L16.9222968,42.0646455 L16.9222968,39.5906094 Z M16.9222968,6.80963116 L19.3961638,6.80963116 L19.3961638,9.28366726 L16.9222968,9.28366726 L16.9222968,6.80963116 Z M85.577038,48.4940688 L14.2365509,48.4940688 L14.2365509,3.65024787 L85.577038,3.65024787 L85.577038,48.4940688 L85.577038,48.4940688 Z" fill="#000000" sketch:type="MSShapeGroup"/></g><text x="0" y="72" fill="#000000" font-size="5px" font-weight="bold" font-family="'Helvetica Neue', Helvetica, Arial-Unicode, Arial, Sans-serif">Created by Shiva Narrthine</text><text x="0" y="77" fill="#000000" font-size="5px" font-weight="bold" font-family="'Helvetica Neue', Helvetica, Arial-Unicode, Arial, Sans-serif">from the Noun Project</text></svg>