<?xml version="1.0" encoding="utf-8"?>
<!-- Generator: Adobe Illustrator 19.1.0, SVG Export Plug-In . SVG Version: 6.00 Build 0)  -->
<!DOCTYPE svg PUBLIC "-//W3C//DTD SVG 1.1//EN" "http://www.w3.org/Graphics/SVG/1.1/DTD/svg11.dtd">
<svg version="1.1" xmlns="http://www.w3.org/2000/svg" xmlns:xlink="http://www.w3.org/1999/xlink" x="0px" y="0px"
	 viewBox="0 0 150 150" style="enable-background:new 0 0 150 150;" xml:space="preserve">
<style type="text/css">
	.st0{display:none;}
	.st1{display:inline;fill:#FF9933;}
	.st2{display:inline;}
	.st3{fill:#FF9933;}
	.st4{fill:none;}
</style>
<g id="Layer_1" class="st0">
	<path class="st1" d="M132.4,8.8c5.1,0,9.6,0.1,13.7,3.9c4.3,4,3.9,9.7,3.9,15v69.1c0,5.1-2.9,9.7-7.4,12.1
		c-3.5,1.8-7.7,1.4-11.6,1.4H91.5c7.5,7.5,15,15,22.6,22.6c3.3,3.3-1.8,8.5-5.2,5.1c-7.1-7.1-14.3-14.3-21.4-21.4v18.8
		c0,4.7-7.3,4.7-7.3,0v-18.8c-7.1,7.1-14.3,14.3-21.4,21.4c-3.3,3.3-8.5-1.8-5.2-5.1c7.5-7.5,15-15,22.6-22.6H38.7
		c0-2.4,0-4.9,0-7.3h97.8c3.4,0,6.3-2.6,6.3-6v-3V28.9c0-3.8,1-9.2-2.6-11.7c-2.5-1.7-6.8-1.1-9.6-1.1H43c-2.7,0-5.8-0.4-8.4,0.1
		c-2.1,0.4-3.4,1.5-4.1,3c-2-1.3-4.3-2.1-6.8-2.3c2-4.7,6.4-8.1,12.2-8.1L132.4,8.8L132.4,8.8z"/>
	<path class="st1" d="M22.6,21.5c5.3,0,9.6,4.3,9.6,9.6c0,5.3-4.3,9.6-9.6,9.6c-5.3,0-9.6-4.3-9.6-9.6C13,25.8,17.3,21.5,22.6,21.5z
		 M40.8,42.6c9.5,0,18.8,0,27.4,0c5.8,0,5.7,8-0.1,8H35.6c-0.6,0-1.2,0.5-1.2,1.1v81.9c0,3-2.4,5.4-5.4,5.4c-3,0-5.4-2.4-5.4-5.4
		V89.5c0-0.7-0.5-1.2-1.2-1.2c-0.7,0-1.2,0.5-1.2,1.2c0,15,0,30.5,0,44.1c0,3-2.4,5.4-5.4,5.4c-3,0-5.4-2.4-5.4-5.4
		c0-25.7,0-51.4,0-77.1c0-0.6-0.5-1.2-1.2-1.2c-0.6,0-1.2,0.5-1.2,1.2c0,10.4,0,21,0,29.9c0,5.8-8,5.9-8,0.1V55.7
		c0-6.4,4.2-13.1,11.7-13.1C21.5,42.6,31.2,42.6,40.8,42.6z"/>
	<g transform="matrix(0.18145139,0,0,0.18145139,27.242251,-2073.5381)" class="st2">
		<path class="st3" d="M354.3,11670.7c-4.9,0-10.3,0.5-15.2,1.1c-6.5,1.1-10.9,6-10.9,12v13c0,2.7-2.2,5.4-4.9,6
			c-8.2,2.7-16.3,6-23.4,9.8c-2.2,1.6-5.4,1.1-7.6-1.1l-9.2-9.2c-4.3-3.8-10.9-4.3-15.8-0.5c-8.2,6.5-15.2,13.6-21.7,21.7
			c-3.8,4.9-3.8,11.4,0.5,15.8l9.2,9.2c2.2,2.2,2.7,4.9,1.1,7.6c-4.3,7.6-7.6,15.2-9.8,23.4c-0.5,2.7-3.3,4.9-6,4.9h-13
			c-6.5,0.5-11.4,4.9-12,10.9c-0.5,4.9-1.1,9.8-1.1,15.2c0,4.9,0.5,10.3,1.1,15.2c1.1,6.5,6,10.9,12,10.9h13c2.7,0,5.4,2.2,6,4.9
			c2.7,8.2,6,16.3,9.8,23.4c1.6,2.2,1.1,5.4-1.1,7.6l-9.2,9.2c-3.8,4.3-4.3,10.9-0.5,15.8c6.5,8.2,13.6,15.2,21.7,21.7
			c4.9,3.8,11.4,3.8,15.8-0.5l9.2-9.2c2.2-2.2,4.9-2.7,7.6-1.1c7.6,4.3,15.2,7.6,23.4,9.8c2.7,0.5,4.9,3.3,4.9,6v13
			c0.5,6.5,4.9,11.4,10.9,12c4.9,0.5,9.8,1.1,15.2,1.1c4.9,0,10.3-0.5,15.2-1.1c6.5-1.1,10.9-6,10.9-12l0-13c0-2.7,2.2-5.4,4.9-6
			c8.2-2.7,16.3-6,23.4-9.8c2.2-1.6,5.4-1.1,7.6,1.1l9.2,9.2c4.3,3.8,10.9,4.4,15.8,0.5c8.2-6.5,15.2-13.6,21.7-21.7
			c3.8-4.9,3.8-11.4-0.5-15.8l-9.2-9.2c-2.2-2.2-2.7-4.9-1.1-7.6c4.3-7.6,7.6-15.2,9.8-23.4c0.5-2.7,3.3-4.9,6-4.9h13
			c6.5-0.5,11.4-4.9,12-10.9c0.5-4.9,1.1-9.8,1.1-15.2c0-4.9-0.5-10.3-1.1-15.2c-1.1-6.5-6-10.9-12-10.9h-13c-2.7,0-5.4-2.2-6-4.9
			c-2.7-8.2-6-16.3-9.8-23.4c-1.6-2.2-1.1-5.4,1.1-7.6l9.2-9.2c3.8-4.3,4.4-10.9,0.5-15.8c-6.5-8.2-13.6-15.2-21.7-21.7
			c-4.9-3.8-11.4-3.8-15.8,0.5l-9.2,9.2c-2.2,2.2-4.9,2.7-7.6,1.1c-7.6-4.4-15.2-7.6-23.4-9.8c-2.7-0.5-4.9-3.3-4.9-6v-13
			c-0.5-6.5-4.9-11.4-10.9-12C364.6,11671.3,359.7,11670.7,354.3,11670.7L354.3,11670.7z M354.3,11737.6c40.2,0,72.9,32.6,72.9,72.9
			h0c0,40.2-32.6,72.9-72.9,72.9c-40.2,0-72.9-32.6-72.9-72.9C281.4,11770.2,314.1,11737.6,354.3,11737.6L354.3,11737.6z"/>
		<path class="st3" d="M464.4,11560.6c-4.9,0-10.3,0.5-15.2,1.1c-6.5,1.1-10.9,6-10.9,12v13c0,2.7-2.2,5.4-4.9,6
			c-8.2,2.7-16.3,5.9-23.4,9.8c-2.2,1.6-5.5,1.1-7.6-1.1l-9.2-9.2c-4.3-3.8-10.9-4.4-15.8-0.6c-8.2,6.5-15.2,13.6-21.7,21.8
			c-1.9,2.4-2.9,5.3-2.8,8.1c0.1,2.8,1.2,5.5,3.3,7.7l9.2,9.2c2.2,2.2,2.7,4.9,1.1,7.6c-0.6,1.1-1.2,2.2-1.8,3.3
			c13.9,0.2,27.3,8.2,33.5,20.5c11.5-25,36.8-42.4,66.1-42.4c40.2,0,72.9,32.7,72.9,72.9c0,29.3-17.3,54.5-42.2,66.1
			c0.2,0.1,0.4,0.2,0.6,0.3c12.6,6.6,18,19.6,19.5,33.3c1.2-0.6,2.5-1.2,3.7-1.8c2.2-1.6,5.4-1.1,7.6,1.1l9.2,9.2
			c4.3,3.8,10.9,4.3,15.8,0.5c8.2-6.5,15.2-13.6,21.8-21.7c3.8-4.9,3.8-11.4-0.6-15.8l-9.2-9.2c-2.2-2.2-2.7-4.9-1.1-7.6
			c4.3-7.6,7.6-15.3,9.8-23.4c0.5-2.7,3.3-4.9,6-4.9h13c6.5-0.5,11.4-4.9,12-10.9c0.5-4.9,1.1-9.8,1.1-15.2c0-4.9-0.5-10.4-1.1-15.3
			c-1.1-6.5-6-10.9-12-10.9h-13c-2.7,0-5.4-2.2-6-4.9c-2.7-8.2-6-16.3-9.8-23.4c-1.6-2.2-1.1-5.5,1.1-7.6l9.2-9.2
			c3.8-4.3,4.4-10.9,0.6-15.8c-6.5-8.2-13.6-15.2-21.8-21.8c-4.9-3.8-11.4-3.8-15.8,0.6l-9.2,9.2c-2.2,2.2-4.9,2.7-7.6,1.1
			c-7.6-4.3-15.3-7.6-23.4-9.8c-2.7-0.5-4.9-3.3-4.9-6l0-13c-0.5-6.5-4.9-11.4-10.8-12C474.8,11561.2,469.9,11560.6,464.4,11560.6
			L464.4,11560.6z"/>
	</g>
</g>
<g id="Layer_2" class="st0">
	<path class="st1" d="M73.2,15.1H16.4c-0.9,0-1.5,0.1-1.5,1.3l0.1,3.8v0.2L16,41.7c0,1.2,0.5,1.4,1,1.4c5.2,0,28.5,0.1,28.5,0.1
		s22.3,0.1,26.8-0.1c1.3,0.1,1.5-1.2,1.5-1.2l0.9-21.5v-0.1l0.1-3.6C74.8,15.5,74.1,15.1,73.2,15.1z M69.5,37.1H20.2l-1.3-15.3h51.4
		L69.5,37.1z M118.4,117.4c0,0.3-0.2,0.5-0.5,0.5h-13.7c-0.3,0-0.5-0.2-0.5-0.5v-13.9c0-0.3,0.2-0.5,0.5-0.5h13.7
		c0.3,0,0.5,0.2,0.5,0.5V117.4z M98.5,117.4c0,0.3-0.2,0.5-0.5,0.5H84.4c-0.3,0-0.5-0.2-0.5-0.5v-13.9c0-0.3,0.2-0.5,0.5-0.5h13.6
		c0.3,0,0.5,0.2,0.5,0.5V117.4z M138.3,117.4c0,0.3-0.2,0.5-0.5,0.5h-13.7c-0.3,0-0.5-0.2-0.5-0.5v-13.9c0-0.3,0.2-0.5,0.5-0.5h13.7
		c0.3,0,0.5,0.2,0.5,0.5V117.4z M118.4,98.2c0,0.3-0.2,0.5-0.5,0.5h-13.7c-0.3,0-0.5-0.2-0.5-0.5V84.3c0-0.3,0.2-0.5,0.5-0.5h13.7
		c0.3,0,0.5,0.2,0.5,0.5V98.2z M98.5,98.2c0,0.3-0.2,0.5-0.5,0.5H84.4c-0.3,0-0.5-0.2-0.5-0.5V84.3c0-0.3,0.2-0.5,0.5-0.5h13.6
		c0.3,0,0.5,0.2,0.5,0.5V98.2z M138.3,98.2c0,0.3-0.2,0.5-0.5,0.5h-13.7c-0.3,0-0.5-0.2-0.5-0.5V84.3c0-0.3,0.2-0.5,0.5-0.5h13.7
		c0.3,0,0.5,0.2,0.5,0.5V98.2z M118.4,78.9c0,0.3-0.2,0.5-0.5,0.5h-13.7c-0.3,0-0.5-0.2-0.5-0.5V65c0-0.3,0.2-0.5,0.5-0.5h13.7
		c0.3,0,0.5,0.2,0.5,0.5V78.9z M98.5,78.9c0,0.3-0.2,0.5-0.5,0.5H84.4c-0.3,0-0.5-0.2-0.5-0.5V65c0-0.3,0.2-0.5,0.5-0.5h13.6
		c0.3,0,0.5,0.2,0.5,0.5V78.9z M138.3,78.9c0,0.3-0.2,0.5-0.5,0.5h-13.7c-0.3,0-0.5-0.2-0.5-0.5V65c0-0.3,0.2-0.5,0.5-0.5h13.7
		c0.3,0,0.5,0.2,0.5,0.5V78.9z M146.7,22.2H78.6l-0.9,22.2c0,0-0.2,1.4-1.7,1.3c-5.1,0.2-30.2,0.1-30.2,0.1s-26.3-0.1-32.1-0.1
		c-0.6,0-1.1-0.2-1.1-1.5l-1.1-21.9H3.3c-1.8,0-3.3,1.5-3.3,3.3v101.2c0,1.8,1.5,3.3,3.3,3.3h143.4c1.8,0,3.3-1.5,3.3-3.3V25.5
		C150,23.7,148.5,22.2,146.7,22.2z M12.1,57.4c0-0.7,0.6-1.2,1.4-1.2c0.8,0,1.4,0.5,1.4,1.2v27.1h-2.8V57.4z M14.9,119.6
		c0,0.7-0.6,1.2-1.4,1.2c-0.8,0-1.4-0.5-1.4-1.2V94.3h2.8V119.6z M20.7,89.8c0,0.9-0.8,1.6-1.8,1.6H8.1c-1,0-1.8-0.7-1.8-1.6v-1.5
		c0-0.9,0.8-1.6,1.8-1.6h10.8c1,0,1.8,0.7,1.8,1.6L20.7,89.8L20.7,89.8z M36.9,121.3c0,0.3-0.2,0.6-0.5,0.6H24.5
		c-0.3,0-0.5-0.2-0.5-0.6v-6c0-0.3,0.2-0.6,0.5-0.6h11.9c0.3,0,0.5,0.2,0.5,0.6V121.3z M50.8,58c6.8,0,12.3,5.5,12.3,12.3
		c0,6.8-5.5,12.3-12.3,12.3S38.6,77,38.6,70.2S44.1,58,50.8,58z M38.6,101.9v-11c0-0.6,0.5-1,1-1h22.5c0.6,0,1,0.5,1,1v11
		c0,0.6-0.5,1-1,1H39.6C39,102.9,38.6,102.5,38.6,101.9z M54.9,121.3c0,0.3-0.2,0.6-0.5,0.6H42.5c-0.3,0-0.5-0.2-0.5-0.6v-6
		c0-0.3,0.2-0.6,0.5-0.6h11.9c0.3,0,0.5,0.2,0.5,0.6V121.3z M73.3,121.3c0,0.3-0.2,0.6-0.5,0.6H60.9c-0.3,0-0.5-0.2-0.5-0.6v-6
		c0-0.3,0.2-0.6,0.5-0.6h11.9c0.3,0,0.5,0.2,0.5,0.6V121.3z M130.7,38.9c3.4,0,6.1,2.7,6.1,6.1c0,3.4-2.7,6.1-6.1,6.1
		s-6.1-2.7-6.1-6.1C124.6,41.6,127.3,38.9,130.7,38.9z M111,38.9c3.4,0,6.1,2.7,6.1,6.1c0,3.4-2.7,6.1-6.1,6.1
		c-3.4,0-6.1-2.7-6.1-6.1C105,41.6,107.7,38.9,111,38.9z M142.7,119.9c0,1.1-0.9,2-2.1,2H81.6c-1.1,0-2.1-0.9-2.1-2V62.7
		c0-1.1,0.9-2,2.1-2h59.1c1.1,0,2.1,0.9,2.1,2C142.7,62.7,142.7,119.9,142.7,119.9z M57.1,70.2c0,3.5-2.8,6.3-6.3,6.3
		c-3.5,0-6.3-2.8-6.3-6.3s2.8-6.3,6.3-6.3C54.3,64,57.1,66.8,57.1,70.2z"/>
</g>
<g id="Layer_3" class="st0">
	<g class="st2">
		<g>
			<path class="st3" d="M104.9,27.3c0-0.6,0.5-1,1-1h16c0.6,0,1,0.4,1,1v30.8c0,0.5-0.4,1-1,1h-16c-0.5,0-1-0.5-1-1V27.3z
				 M114.9,37.7c-0.5-0.2-1.3-0.2-1.8,0c0,0-4.5,2.1-4.5,5c0,2.9,2.3,5.4,5.4,5.4c2.9,0,5.3-2.5,5.3-5.4
				C119.2,39.8,114.9,37.7,114.9,37.7z M111.2,22.4c0,0.5,0.4,1,1,1h3.4c0.6,0,1-0.5,1-1V10.9c0-0.6-0.4-1-1-1h-3.4
				c-0.6,0-1,0.4-1,1V22.4z M94.8,54.1c0.1-0.5,0.7-1,1.2-1h6.5c0.6,0,0.9,0.4,0.8,1l-5.5,23.6c-0.1,0.5-0.7,1-1.2,1H90
				c-0.5,0-0.9-0.4-0.8-1L94.8,54.1z M88.1,119.3c-0.1,0.5-0.7,1-1.2,1h-6.6c-0.5,0-0.9-0.4-0.8-1l8.2-35c0.1-0.5,0.7-1,1.2-1h6.6
				c0.5,0,0.9,0.4,0.8,1L88.1,119.3z M133.2,54.1c-0.1-0.5-0.7-1-1.2-1h-6.5c-0.6,0-0.9,0.4-0.8,1l5.4,23.6c0.1,0.5,0.7,1,1.2,1h6.6
				c0.6,0,0.9-0.4,0.8-1L133.2,54.1z M132.5,83.3c-0.6,0-0.9,0.4-0.8,1l8.2,35c0.1,0.5,0.7,1,1.2,1h6.5c0.6,0,0.9-0.4,0.8-1l-8.2-35
				c-0.1-0.5-0.7-1-1.2-1H132.5z M84,137.3c-0.1,0.5-0.7,1-1.2,1h-6.5c-0.6,0-0.9-0.4-0.8-1l2.9-12.3c0.1-0.5,0.7-1,1.2-1H86
				c0.5,0,0.9,0.4,0.8,1L84,137.3z M147.6,137.3c0.1,0.5,0.7,1,1.2,1h0.3c0.5,0,0.9-0.4,0.8-1l-3.5-15.1c-0.1-0.5-0.7-1-1.2-1h0
				c-0.6,0-0.9,0.4-0.8,1L147.6,137.3z M77.2,80.8c0-0.6,0.4-1,1-1h30.4c0.6,0,1,0.4,1,1v0.3c0,0.5-0.4,1-1,1H78.2c-0.6,0-1-0.5-1-1
				V80.8z M115.9,80.8c0-0.6,0.4-1,1-1h30.5c0.6,0,1,0.4,1,1v0.3c0,0.5-0.4,1-1,1h-30.5c-0.6,0-1-0.5-1-1V80.8z M111.9,70.8
				c0.5-0.3,1.3-0.3,1.7,0l1,1.6c0.2,0.5,0.3,1.4,0.3,1.9v13.2c0,0.6-0.1,1.4-0.3,1.9l-1,1.6c-0.5,0.3-1.3,0.3-1.7,0l-1.2-1.6
				c-0.2-0.5-0.3-1.4-0.3-1.9V74.3c0-0.6,0.1-1.4,0.3-1.9L111.9,70.8z"/>
		</g>
	</g>
	<g class="st2">
		<path class="st3" d="M15.7,9.8C7,9.8,0,16.9,0,25.6v5.2v2.6v76c0,0,0,0.1,0,0.1c0,0.3,0.1,0.5,0.2,0.8c0,0.1,0,0.1,0.1,0.2
			c0,0,0,0.1,0,0.1l13.1,26.2c0.4,0.9,1.3,1.5,2.3,1.5s1.9-0.6,2.3-1.5l13.1-26.2c0,0,0-0.1,0-0.1c0-0.1,0-0.1,0.1-0.2
			c0.1-0.3,0.2-0.5,0.2-0.8c0,0,0-0.1,0-0.1v-76v-2.6v-5.2c0-4.2-1.6-8.1-4.6-11.1C23.9,11.5,19.9,9.8,15.7,9.8z M15.7,15.1
			c2.8,0,5.4,1.1,7.4,3c2,2,3.1,4.6,3.1,7.4v2.6h-21v-2.6C5.2,19.8,9.9,15.1,15.7,15.1z M19.3,122.5h-7.2L6.9,112h17.7L19.3,122.5z"
			/>
		<path class="st3" d="M68.1,9.8H41.9c-1.5,0-2.6,1.2-2.6,2.6v123.2c0,1.5,1.2,2.6,2.6,2.6h26.2c1.5,0,2.6-1.2,2.6-2.6V12.5
			C70.7,11,69.6,9.8,68.1,9.8z M65.5,133h-21v-10.5h13.1c0.7,0,1.3-0.6,1.3-1.3c0-0.7-0.6-1.3-1.3-1.3H44.5v-5.2h5.2
			c0.7,0,1.3-0.6,1.3-1.3c0-0.7-0.6-1.3-1.3-1.3h-5.2v-5.2h13.1c0.7,0,1.3-0.6,1.3-1.3c0-0.7-0.6-1.3-1.3-1.3H44.5v-5.2h5.2
			c0.7,0,1.3-0.6,1.3-1.3c0-0.7-0.6-1.3-1.3-1.3h-5.2v-5.2h13.1c0.7,0,1.3-0.6,1.3-1.3s-0.6-1.3-1.3-1.3H44.5v-5.2h5.2
			c0.7,0,1.3-0.6,1.3-1.3s-0.6-1.3-1.3-1.3h-5.2v-5.2h13.1c0.7,0,1.3-0.6,1.3-1.3s-0.6-1.3-1.3-1.3H44.5v-5.2h5.2
			c0.7,0,1.3-0.6,1.3-1.3c0-0.7-0.6-1.3-1.3-1.3h-5.2v-5.2h13.1c0.7,0,1.3-0.6,1.3-1.3c0-0.7-0.6-1.3-1.3-1.3H44.5v-5.2h5.2
			c0.7,0,1.3-0.6,1.3-1.3c0-0.7-0.6-1.3-1.3-1.3h-5.2v-5.2h13.1c0.7,0,1.3-0.6,1.3-1.3s-0.6-1.3-1.3-1.3H44.5V36h5.2
			c0.7,0,1.3-0.6,1.3-1.3c0-0.7-0.6-1.3-1.3-1.3h-5.2v-5.2h13.1c0.7,0,1.3-0.6,1.3-1.3c0-0.7-0.6-1.3-1.3-1.3H44.5V15.1h21
			C65.5,15.1,65.5,133,65.5,133z"/>
	</g>
</g>
<g id="Layer_4" class="st0">
	<g class="st2">
		<polygon class="st4" points="63,47.5 63,46.7 63,47.5 63,101.7 63,102.6 63,101.7 		"/>
		<path class="st4" d="M36,140h78V10H36V140z"/>
		<rect x="10" y="38" class="st4" width="19" height="17"/>
		<rect x="121" y="121" class="st4" width="19" height="19"/>
		<rect x="10" y="10" class="st4" width="19" height="19"/>
		<rect x="10" y="65" class="st4" width="19" height="19"/>
		<rect x="10" y="93" class="st4" width="19" height="19"/>
		<rect x="10" y="121" class="st4" width="19" height="19"/>
		<rect x="121" y="10" class="st4" width="19" height="19"/>
		<rect x="121" y="38" class="st4" width="19" height="17"/>
		<rect x="121" y="93" class="st4" width="19" height="19"/>
		<rect x="121" y="65" class="st4" width="19" height="19"/>
		<g>
			<rect x="10" y="38" class="st4" width="19" height="17"/>
			<rect x="36" y="10" class="st4" width="78" height="130"/>
			<rect x="10" y="93" class="st4" width="19" height="19"/>
			<rect x="10" y="121" class="st4" width="19" height="19"/>
			<rect x="10" y="65" class="st4" width="19" height="19"/>
			<rect x="121" y="121" class="st4" width="19" height="19"/>
			<rect x="10" y="10" class="st4" width="19" height="19"/>
			<rect x="121" y="10" class="st4" width="19" height="19"/>
			<rect x="121" y="65" class="st4" width="19" height="19"/>
			<rect x="121" y="38" class="st4" width="19" height="17"/>
			<rect x="121" y="93" class="st4" width="19" height="19"/>
			<path class="st3" d="M140.7,0H9.3C4.2,0,0,4.2,0,9.3v131.4c0,5.1,4.2,9.3,9.3,9.3h131.4c5.1,0,9.3-4.2,9.3-9.3V9.3
				C150,4.2,145.8,0,140.7,0z M29,140H10v-19h19V140z M29,112H10V93h19V112z M29,84H10V65h19V84z M29,55H10V38h19V55z M29,29H10V10
				h19V29z M114,140H36V10h78V140z M140,140h-19v-19h19V140z M140,112h-19V93h19V112z M140,84h-19V65h19V84z M140,55h-19V38h19V55z
				 M140,29h-19V10h19V29z"/>
		</g>
		<g>
			<path class="st3" d="M89.2,76c0.8-0.8,0.8-2.1,0-2.8L65.2,49c-0.8-0.8-1.2-0.5-1.2,0.6v50.2c0,1.1,0.4,1.4,1.2,0.6L89.2,76z"/>
		</g>
	</g>
</g>
<g id="Layer_5">
	<g>
		<g>
			<g>
				<g>
					<path class="st3" d="M30,105c-1.1,0-2-0.9-2-2V13c0-1.1-0.9-2-2-2H2c-1.1,0-2-0.9-2-2V3c0-1.1,0.9-2,2-2h34c1.1,0,2,0.9,2,2v22
						c0,1.1,0.9,2,2,2h96c1.1,0,2,0.9,2,2v40c0,1.1-0.9,2-2,2H40c-1.1,0-2,0.9-2,2v20c0,1.1,0.9,2,2,2h108c1.1,0,2,0.9,2,2v6
						c0,1.1-0.9,2-2,2H30z M38,61c0,1.1,0.9,2,2,2h86c1.1,0,2-0.9,2-2V37c0-1.1-0.9-2-2-2H40c-1.1,0-2,0.9-2,2V61z"/>
				</g>
			</g>
		</g>
		<path class="st3" d="M46.6,149c-11,0-20-9-20-20s9-20,20-20c11,0,20,9,20,20S57.7,149,46.6,149z M46.6,120c-5,0-9,4-9,9s4,9,9,9
			c5,0,9-4,9-9S51.6,120,46.6,120z"/>
		<path class="st3" d="M118,149c-11,0-20-9-20-20s9-20,20-20c11,0,20,9,20,20S129.1,149,118,149z M118,120c-5,0-9,4-9,9s4,9,9,9
			s9-4,9-9S123,120,118,120z"/>
	</g>
</g>
</svg>
